# xmcd
#
# Track frame offsets:
#	150
#	17065
#	32870
#	53343
#	68310
#	84553
#	103290
#	117785
#	131798
#	147360
#	164510
#	183538
#	202270
#	220663
#	232890
#
# Disc length: 3370 seconds
#
# Revision: 1
# Processed by: cddbd v1.4PL0 Copyright (c) Steve Scherf et al.
# Submitted via: audiograbber 1.81.02
#
DISCID=d20d280f
DTITLE=Jan James - Color Of The Rose
DYEAR=1995
DGENRE=Country
TTITLE0=Mississippi Man
TTITLE1=To Believe
TTITLE2=Color Of The Rose
TTITLE3=Come Runnin' Back
TTITLE4=Down The River
TTITLE5=Dance
TTITLE6=Middle Of Fate
TTITLE7=Shake
TTITLE8=Treasure Me
TTITLE9=Please Forgive Me
TTITLE10=Don't Try To Chain Me Down
TTITLE11=Good Woman
TTITLE12=If I Held On To You
TTITLE13=Guilty Man
TTITLE14=Waste Of My Time
EXTD=
EXTT0=
EXTT1=
EXTT2=
EXTT3=
EXTT4=
EXTT5=
EXTT6=
EXTT7=
EXTT8=
EXTT9=
EXTT10=
EXTT11=
EXTT12=
EXTT13=
EXTT14=
PLAYORDER=
